<?xml version="1.0" encoding="UTF-8"?>
<svg width="180" height="50" viewBox="0 0 180 50" fill="none" xmlns="http://www.w3.org/2000/svg">
  <!-- Gradient for the logo -->
  <defs>
    <linearGradient id="logo-gradient" x1="0%" y1="0%" x2="100%" y2="100%">
      <stop offset="0%" stop-color="#60A5FA" /> <!-- blue-400 -->
      <stop offset="100%" stop-color="#818CF8" /> <!-- indigo-400 -->
    </linearGradient>
    <filter id="shadow" x="-1" y="0" width="175%" height="175%">
      <feDropShadow dx="0" dy="1" stdDeviation="2" flood-opacity="0.3" />
    </filter>
  </defs>
  
  <!-- Building Icon -->
  <g filter="url(#shadow)">
    <path d="M10 40V15C10 12.7909 11.7909 11 14 11H18C20.2091 11 22 12.7909 22 15V40" stroke="url(#logo-gradient)" stroke-width="3" stroke-linecap="round" />
    <path d="M22 40V22C22 19.7909 23.7909 18 26 18H30C32.2091 18 34 19.7909 34 22V40" stroke="url(#logo-gradient)" stroke-width="3" stroke-linecap="round" />
    <path d="M34 40V26C34 23.7909 35.7909 22 38 22H42C44.2091 22 46 23.7909 46 26V40" stroke="url(#logo-gradient)" stroke-width="3" stroke-linecap="round" />
    <path d="M7 40H49" stroke="url(#logo-gradient)" stroke-width="3" stroke-linecap="round" />
  </g>

  <!-- Text: BuildEase -->
  <path d="M62 19.6C62 16.0667 63.0667 13.3333 65.2 11.4C67.3333 9.46667 70.2 8.5 73.8 8.5C76.2 8.5 78.3 9 80 10C81.7333 11 83.0667 12.4 84 14.2L79 17.2C78.4667 16.2 77.7667 15.4667 76.9 15C76.0333 14.5333 75 14.3 73.8 14.3C71.9333 14.3 70.4333 14.8333 69.3 15.9C68.1667 16.9667 67.6 18.2 67.6 19.6C67.6 21.0667 68.1667 22.3333 69.3 23.4C70.4333 24.4667 71.9333 25 73.8 25C75 25 76.0333 24.7667 76.9 24.3C77.7667 23.8333 78.4667 23.1 79 22.1L84 25.1C83.0667 26.9 81.7333 28.3 80 29.3C78.3 30.2667 76.2 30.7667 73.8 30.7667C70.2 30.7667 67.3333 29.8 65.2 27.8667C63.0667 25.9333 62 23.1333 62 19.6Z" fill="white"/>
  <path d="M85.6133 14.7V9.2H91.0133V14.7H96.4133V19.8333H91.0133V25.3333H85.6133V19.8333H80.2133V14.7H85.6133Z" fill="url(#logo-gradient)"/>
  <path d="M98.4258 9.2H104.226V30.2H98.4258V9.2Z" fill="white"/>
  <path d="M107.404 9.2H113.204V25.1667H123.537V30.2H107.404V9.2Z" fill="white"/>
  <path d="M125.797 9.2H131.597V30.2H125.797V9.2Z" fill="white"/>
  <path d="M139.594 30.7667C136.994 30.7667 134.86 30.0333 133.194 28.5667C131.527 27.0667 130.694 25.0667 130.694 22.5667V9.2H136.494V22.1667C136.494 23.3 136.794 24.1667 137.394 24.7667C137.994 25.3667 138.794 25.6667 139.794 25.6667C140.794 25.6667 141.594 25.3667 142.194 24.7667C142.794 24.1667 143.094 23.3 143.094 22.1667V9.2H148.894V22.5667C148.894 25.0667 148.06 27.0667 146.394 28.5667C144.727 30.0333 142.46 30.7667 139.594 30.7667Z" fill="white"/>
  <path d="M156.604 30.7667C154.071 30.7667 152.004 29.8667 150.404 28.0667C148.804 26.2333 148.004 23.8333 148.004 20.8667C148.004 17.8333 148.804 15.4 150.404 13.6C152.004 11.8 154.071 10.9 156.604 10.9C158.937 10.9 160.804 11.7333 162.204 13.4V9.2H168.004V30.2H162.204V27.1C160.804 29.5444 158.937 30.7667 156.604 30.7667ZM158.738 25.7667C160.138 25.7667 161.271 25.2 162.138 24.0667C163.004 22.9333 163.438 21.5333 163.438 19.8667C163.438 18.1333 163.004 16.6667 162.138 15.4667C161.271 14.2667 160.138 13.6667 158.738 13.6667C157.404 13.6667 156.304 14.2333 155.438 15.3667C154.604 16.5 154.171 17.9667 154.171 19.7667C154.171 21.4667 154.598 22.8667 155.451 23.9667C156.304 25.1667 157.404 25.7667 158.738 25.7667Z" fill="white"/>
  <path d="M170.584 26C170.584 24.8 171.051 23.8667 171.984 23.2C172.951 22.5 174.117 22.15 175.484 22.15C176.851 22.15 178.017 22.5 178.984 23.2C179.951 23.8667 180.434 24.8 180.434 26C180.434 27.1667 179.951 28.1 178.984 28.8C178.017 29.4667 176.851 29.8 175.484 29.8C174.117 29.8 172.951 29.4667 171.984 28.8C171.051 28.1 170.584 27.1667 170.584 26Z" fill="url(#logo-gradient)"/>
</svg> 